<svg width="1479" height="579" viewBox="0 0 1479 579" fill="none" xmlns="http://www.w3.org/2000/svg">
<path d="M278.62 507.89C397.151 507.89 493.24 411.802 493.24 293.27C493.24 174.739 397.151 78.6504 278.62 78.6504C160.089 78.6504 64 174.739 64 293.27C64 411.802 160.089 507.89 278.62 507.89Z" fill="url(#paint0_linear_6451_89182)"/>
<path d="M414.14 280.15L353.52 219.53L353.41 219.42L353.17 219.21C352.778 218.855 352.367 218.521 351.94 218.21C351.64 217.97 351.34 217.74 351.02 217.53C350.88 217.43 350.74 217.35 350.59 217.26C347.134 214.996 342.953 214.115 338.878 214.791C334.802 215.468 331.13 217.652 328.59 220.91L234.31 315.2V231.2C234.31 226.784 232.556 222.549 229.433 219.426C226.311 216.304 222.076 214.55 217.66 214.55C213.244 214.55 209.009 216.304 205.887 219.426C202.764 222.549 201.01 226.784 201.01 231.2V315.2L166.59 280.78C163.444 277.78 159.249 276.129 154.902 276.181C150.555 276.233 146.401 277.982 143.327 281.056C140.253 284.13 138.503 288.285 138.451 292.632C138.399 296.979 140.05 301.174 143.05 304.32L205.89 367.16C206.285 367.56 206.702 367.937 207.14 368.29C207.56 368.63 208 368.96 208.44 369.29C210.711 370.761 213.305 371.657 216 371.9H216.07C216.61 371.95 217.15 371.98 217.69 371.98H217.94C218.393 371.98 218.843 371.96 219.29 371.92H219.62C220.05 371.87 220.48 371.82 220.9 371.73H221.09C221.56 371.63 222.03 371.52 222.49 371.38H222.57C223.072 371.229 223.566 371.052 224.05 370.85C224.74 370.565 225.408 370.23 226.05 369.85L226.43 369.63C227.059 369.245 227.66 368.818 228.23 368.35L228.4 368.2C228.75 367.9 229.1 367.6 229.4 367.26L325 271.6V355.34C325 359.756 326.754 363.991 329.877 367.113C332.999 370.236 337.234 371.99 341.65 371.99C346.066 371.99 350.301 370.236 353.423 367.113C356.546 363.991 358.3 359.756 358.3 355.34V271.34L390.6 303.7C393.735 306.761 397.951 308.462 402.333 308.435C406.714 308.408 410.909 306.655 414.006 303.556C417.104 300.457 418.855 296.262 418.88 291.88C418.905 287.499 417.202 283.284 414.14 280.15Z" fill="white"/>
<path d="M568.22 243.17H617.62V372.21H647.21V243.17H696.61V215.53H568.22V243.17Z" fill="#1461DB"/>
<path d="M761.45 254.43C757.947 254.673 754.48 255.293 751.11 256.28C747.864 257.224 744.758 258.593 741.87 260.35C738.238 262.47 735.057 265.283 732.51 268.63C731.308 270.218 730.219 271.889 729.25 273.63V254.7H703.14V372.21H733V312.15C732.921 308.029 733.526 303.923 734.79 300C735.935 296.528 737.796 293.335 740.252 290.627C742.708 287.919 745.706 285.757 749.05 284.28C752.725 282.559 756.69 281.542 760.74 281.28C764.562 280.901 768.422 281.24 772.12 282.28V254.7C768.581 254.26 765.007 254.17 761.45 254.43Z" fill="#1461DB"/>
<path d="M884.4 272.76C880.55 265.186 874.041 259.3 866.12 256.23C858.073 253.03 848.86 251.43 838.48 251.43C824.34 251.43 813.17 254.48 804.97 260.58C796.936 266.435 791.05 274.77 788.22 284.3L814.98 292.78C816.873 287.406 820.173 283.673 824.88 281.58C829.139 279.576 833.774 278.499 838.48 278.42C846.32 278.42 851.907 280.053 855.24 283.32C857.85 285.87 859.41 289.6 859.97 294.42C854.97 295.17 850.22 295.88 845.77 296.53C838.163 297.656 831.347 298.836 825.32 300.07C820.037 301.105 814.837 302.522 809.76 304.31C804.22 306.2 799.101 309.152 794.69 313C791.074 316.268 788.293 320.356 786.58 324.92C784.868 329.698 784.022 334.744 784.08 339.82C784.011 346.077 785.568 352.245 788.6 357.72C791.689 363.233 796.295 367.744 801.87 370.72C807.71 373.953 814.837 375.566 823.25 375.56C833.41 375.56 841.807 373.8 848.44 370.28C854.137 367.104 859.177 362.872 863.29 357.81V372.3H889.19V300.39C889.213 295.525 888.993 290.662 888.53 285.82C888.027 281.237 886.623 276.799 884.4 272.76ZM856.76 336.52C855.54 338.778 854.023 340.863 852.25 342.72C849.703 345.439 846.68 347.669 843.33 349.3C839.036 351.346 834.314 352.333 829.56 352.18C826.552 352.254 823.559 351.738 820.75 350.66C818.457 349.784 816.471 348.254 815.04 346.26C813.665 344.223 812.966 341.806 813.04 339.35C813.015 337.496 813.448 335.666 814.3 334.02C815.258 332.277 816.594 330.77 818.21 329.61C820.371 328.062 822.724 326.801 825.21 325.86C828.091 324.813 831.034 323.942 834.02 323.25C837.353 322.45 841.743 321.56 847.19 320.58C850.66 319.96 854.9 319.22 859.74 318.4C859.68 320.49 859.59 322.74 859.43 325.4C859.27 329.245 858.363 333.022 856.76 336.52Z" fill="#1461DB"/>
<path d="M1024.64 282.72C1023.2 277.369 1020.86 272.298 1017.74 267.72C1014.26 262.721 1009.61 258.649 1004.19 255.86C998.39 252.747 990.883 251.19 981.67 251.19C970.137 251.19 960.58 253.69 953 258.69C949.524 260.988 946.36 263.728 943.59 266.84V254.7H917.26V372.21H947.26V312.59C947.26 305.257 948.073 299.38 949.7 294.96C951.327 290.54 953.427 287.187 956 284.9C958.318 282.737 961.114 281.151 964.16 280.27C966.814 279.506 969.558 279.102 972.32 279.07C978.627 279.07 983.503 280.487 986.95 283.32C990.357 286.086 992.938 289.736 994.41 293.87C995.897 297.914 996.812 302.144 997.13 306.44C997.423 310.607 997.567 314.034 997.56 316.72V372.21H1027.56V306.27C1027.56 304.27 1027.42 301.2 1027.13 296.91C1026.75 292.112 1025.92 287.36 1024.64 282.72Z" fill="#1461DB"/>
<path d="M1135.46 310C1130.05 306.933 1122.88 304.233 1113.97 301.9C1104.83 299.58 1098.03 297.693 1093.57 296.24C1089.11 294.787 1086.17 293.373 1084.76 292C1084.07 291.343 1083.52 290.547 1083.15 289.666C1082.79 288.784 1082.61 287.835 1082.63 286.88C1082.63 283.47 1084.28 280.88 1087.58 279.05C1090.88 277.22 1095.26 276.52 1100.69 276.88C1106.28 277.313 1110.7 278.8 1113.97 281.34C1115.58 282.58 1116.91 284.139 1117.88 285.918C1118.86 287.698 1119.45 289.659 1119.63 291.68L1149.88 286.23C1148.99 279.418 1146.18 273.001 1141.77 267.73C1137.12 262.327 1131.19 258.178 1124.52 255.66C1116.7 252.702 1108.4 251.26 1100.04 251.41C1090.54 251.41 1082.29 252.917 1075.29 255.93C1068.74 258.575 1063.09 263.037 1059 268.79C1055.09 274.58 1053.07 281.444 1053.24 288.43C1053.08 293.811 1054.39 299.132 1057.04 303.82C1059.58 308.073 1063.72 311.72 1069.45 314.76C1075.18 317.8 1082.85 320.557 1092.45 323.03C1100.93 325.283 1107.18 327.097 1111.21 328.47C1115.21 329.85 1117.83 331.24 1118.99 332.66C1120.21 334.263 1120.83 336.247 1120.73 338.26C1120.8 339.952 1120.43 341.634 1119.67 343.147C1118.91 344.66 1117.78 345.955 1116.38 346.91C1113.46 348.97 1109.33 350 1104 350C1097.47 350 1092.08 348.44 1087.84 345.32C1083.57 342.169 1080.64 337.53 1079.63 332.32L1049.34 337C1051.3 349.26 1056.83 358.747 1065.93 365.46C1075.03 372.173 1086.98 375.527 1101.78 375.52C1117.16 375.52 1129.2 372.073 1137.9 365.18C1146.6 358.287 1150.97 348.807 1151 336.74C1151.16 331.299 1149.88 325.912 1147.3 321.12C1144.81 316.813 1140.87 313.107 1135.46 310Z" fill="#1461DB"/>
<path d="M1268.69 272.76C1264.84 265.188 1258.33 259.303 1250.41 256.23C1242.36 253.03 1233.14 251.43 1222.77 251.43C1208.63 251.43 1197.46 254.48 1189.26 260.58C1181.23 266.437 1175.34 274.77 1172.5 284.3L1199.27 292.78C1201.16 287.406 1204.46 283.673 1209.17 281.58C1213.43 279.576 1218.06 278.499 1222.77 278.42C1230.61 278.42 1236.2 280.053 1239.53 283.32C1242.14 285.87 1243.69 289.6 1244.26 294.42C1239.26 295.17 1234.51 295.88 1230.06 296.53C1222.45 297.656 1215.64 298.836 1209.61 300.07C1204.33 301.105 1199.13 302.522 1194.05 304.31C1187.74 306.643 1182.72 309.526 1178.98 312.96C1175.36 316.228 1172.58 320.316 1170.87 324.88C1169.15 329.657 1168.31 334.704 1168.37 339.78C1168.3 346.037 1169.86 352.205 1172.89 357.68C1175.98 363.194 1180.58 367.706 1186.16 370.68C1192 373.913 1199.13 375.526 1207.54 375.52C1217.7 375.52 1226.1 373.76 1232.73 370.24C1238.43 367.064 1243.47 362.832 1247.58 357.77V372.26H1273.48V300.39C1273.5 295.525 1273.28 290.662 1272.82 285.82C1272.32 281.237 1270.91 276.799 1268.69 272.76ZM1241.05 336.52C1239.83 338.778 1238.31 340.863 1236.54 342.72C1233.99 345.439 1230.97 347.669 1227.62 349.3C1223.33 351.346 1218.6 352.333 1213.85 352.18C1210.84 352.254 1207.85 351.738 1205.04 350.66C1202.75 349.784 1200.76 348.254 1199.33 346.26C1197.96 344.223 1197.26 341.806 1197.33 339.35C1197.31 337.496 1197.74 335.666 1198.59 334.02C1199.55 332.274 1200.88 330.767 1202.5 329.61C1204.66 328.062 1207.01 326.801 1209.5 325.86C1212.38 324.812 1215.32 323.94 1218.31 323.25C1221.64 322.45 1226.03 321.56 1231.48 320.58C1234.95 319.96 1239.19 319.22 1244.03 318.4C1243.97 320.49 1243.87 322.74 1243.72 325.4C1243.55 329.243 1242.64 333.019 1241.05 336.52Z" fill="#1461DB"/>
<path d="M1365.74 313.45L1408.17 254.7H1371.61L1331.79 311.28V215.53H1301.76L1301.54 372.21H1331.79V315.63L1372.48 372.21H1411L1365.74 313.45Z" fill="#1461DB"/>
<defs>
<linearGradient id="paint0_linear_6451_89182" x1="92.72" y1="185.94" x2="464.52" y2="400.59" gradientUnits="userSpaceOnUse">
<stop offset="0.13" stop-color="#348BED"/>
<stop offset="0.31" stop-color="#2B80E8"/>
<stop offset="0.64" stop-color="#1461DB"/>
<stop offset="0.72" stop-color="#0E57D7"/>
</linearGradient>
</defs>
</svg>
